<svg width="12" height="9" viewBox="0 0 12 9" fill="none" xmlns="http://www.w3.org/2000/svg">
<path d="M0 8.52558V7.22881C0 6.92817 0.0775903 6.65988 0.232771 6.42393C0.387951 6.18798 0.595192 6.00441 0.854494 5.87321C1.40886 5.60206 1.96631 5.39301 2.52683 5.24606C3.08734 5.0991 3.7034 5.02562 4.37498 5.02562C5.04656 5.02562 5.66261 5.0991 6.22313 5.24606C6.78365 5.39301 7.34109 5.60206 7.89546 5.87321C8.15477 6.00441 8.36201 6.18798 8.51719 6.42393C8.67237 6.65988 8.74996 6.92817 8.74996 7.22881V8.52558H0ZM9.91662 8.52558V7.15702C9.91662 6.77412 9.82287 6.4092 9.63536 6.06226C9.44785 5.71532 9.18189 5.41764 8.83748 5.16922C9.2286 5.22755 9.59991 5.31786 9.9514 5.44013C10.3029 5.5624 10.6383 5.70693 10.9576 5.8737C11.259 6.03449 11.4918 6.22399 11.6559 6.44222C11.8201 6.66044 11.9022 6.89871 11.9022 7.15702V8.52558H9.91662ZM4.37498 4.08329C3.81184 4.08329 3.33079 3.8838 2.9318 3.48482C2.53282 3.08584 2.33333 2.60478 2.33333 2.04165C2.33333 1.47851 2.53282 0.997452 2.9318 0.598471C3.33079 0.19949 3.81184 0 4.37498 0C4.93811 0 5.41917 0.19949 5.81815 0.598471C6.21713 0.997452 6.41662 1.47851 6.41662 2.04165C6.41662 2.60478 6.21713 3.08584 5.81815 3.48482C5.41917 3.8838 4.93811 4.08329 4.37498 4.08329ZM9.41178 2.04165C9.41178 2.60478 9.21187 3.08584 8.81205 3.48482C8.41222 3.8838 7.93159 4.08329 7.37013 4.08329C7.30433 4.08329 7.22057 4.07581 7.11886 4.06086C7.01716 4.0459 6.9334 4.02945 6.86759 4.0115C7.09764 3.73493 7.27443 3.42811 7.39798 3.09105C7.52152 2.75398 7.58329 2.40395 7.58329 2.04095C7.58329 1.67796 7.52028 1.32931 7.39427 0.995021C7.26826 0.660729 7.0927 0.352986 6.86759 0.0717916C6.95135 0.0418784 7.03511 0.0224349 7.11886 0.0134609C7.20262 0.00448697 7.28638 0 7.37013 0C7.93159 0 8.41222 0.19949 8.81205 0.598471C9.21187 0.997452 9.41178 1.47851 9.41178 2.04165ZM0.874979 7.6506H7.87498V7.22881C7.87498 7.10691 7.8445 6.99847 7.78355 6.90349C7.7226 6.80851 7.62594 6.7255 7.49356 6.65445C7.01344 6.40691 6.5191 6.21938 6.01056 6.09187C5.50201 5.96436 4.95682 5.9006 4.37498 5.9006C3.79314 5.9006 3.24795 5.96436 2.7394 6.09187C2.23086 6.21938 1.73652 6.40691 1.2564 6.65445C1.12402 6.7255 1.02736 6.80851 0.966406 6.90349C0.905454 6.99847 0.874979 7.10691 0.874979 7.22881V7.6506ZM4.37498 3.20831C4.69581 3.20831 4.97046 3.09408 5.19894 2.8656C5.42741 2.63713 5.54165 2.36248 5.54165 2.04165C5.54165 1.72081 5.42741 1.44616 5.19894 1.21769C4.97046 0.989215 4.69581 0.874979 4.37498 0.874979C4.05415 0.874979 3.77949 0.989215 3.55102 1.21769C3.32255 1.44616 3.20831 1.72081 3.20831 2.04165C3.20831 2.36248 3.32255 2.63713 3.55102 2.8656C3.77949 3.09408 4.05415 3.20831 4.37498 3.20831Z" fill="currentColor"/>
</svg>
